<?xml version="1.0" encoding="UTF-8" standalone="no"?><!DOCTYPE svg PUBLIC "-//W3C//DTD SVG 1.1//EN" "http://www.w3.org/Graphics/SVG/1.1/DTD/svg11.dtd"><svg width="623px" height="218px" version="1.1" xmlns="http://www.w3.org/2000/svg" xmlns:xlink="http://www.w3.org/1999/xlink" xml:space="preserve" xmlns:serif="http://www.serif.com/" style="fill-rule:evenodd;clip-rule:evenodd;stroke-linejoin:round;stroke-miterlimit:2;"><g transform="matrix(1,0,0,1,-10,-211)"><path d="M387,390.4L431.3,390.4L431.3,396.6L380.4,396.6L380.4,318.5L387,318.5L387,390.4ZM460.3,341.6C476.5,341.6 488.8,353.8 488.8,369.9C488.8,385.9 476.6,398 460.3,398C444.1,398 431.9,385.9 431.9,369.9C432,353.7 444.2,341.6 460.3,341.6M460.3,391.8C472.6,391.8 482.2,382.2 482.2,369.8C482.2,357.1 472.8,347.6 460.3,347.6C447.9,347.6 438.6,357.1 438.6,369.8C438.6,382.2 448.1,391.8 460.3,391.8M540.6,342.9L547.1,342.9L547.1,393.6C547.1,409.3 536.2,419 518.7,419C510.4,419 502.5,416.3 498.3,414L498,413.8L498,407.1L498.9,407.6C504.3,410.9 511.6,412.9 518.4,412.9C532.5,412.9 540.6,405.9 540.6,393.6L540.6,388.2C535.7,394.1 528.4,397.3 519.8,397.3C504.3,397.3 492.5,385.3 492.5,369.3C492.5,353.4 504.2,341.5 519.8,341.5C528.3,341.5 535.6,344.8 540.6,350.7L540.6,342.9ZM540.6,360C537.1,352.5 529.4,347.7 520.9,347.7C508.5,347.7 499.2,357 499.2,369.4C499.2,381.9 508.5,391.3 520.9,391.3C529.4,391.3 537.1,386.5 540.6,379.1L540.6,360ZM563.3,320C560.6,320 558.4,322.2 558.4,325C558.4,327.7 560.6,330 563.3,330C566,330 568.2,327.8 568.2,325C568.2,322.2 566,320 563.3,320M560.1,396.6L566.6,396.6L566.6,342.9L560.1,342.9L560.1,396.6ZM620.4,387C615.8,390.3 610.7,391.8 604.6,391.8C591.9,391.8 582.3,382.4 582.3,369.8C582.3,357.1 591.9,347.6 604.6,347.6C609.6,347.6 614.6,349 619.4,351.8L620.3,352.3L620.3,345.8L620,345.6C615.4,342.8 610,341.4 604,341.4C587.9,341.4 575.8,353.5 575.8,369.6C575.8,385.7 587.9,397.8 603.9,397.8C610.5,397.8 616.3,396.2 621.1,393.1L621.4,392.9L621.4,386.2L620.4,387ZM170.6,276.5C158.2,278.8 146.1,280.7 134.5,282.1L134.5,280.4C146,279.6 158.1,278.3 170.6,276.5M127.4,280.9C125.6,281 123.8,281.1 122,281.2C118.8,281.4 115.7,281.5 112.6,281.6C110.1,281.7 107.6,281.7 105.1,281.8C88.2,282 73.5,281 62,278.9C59.6,278.5 57.2,278 55.1,277.5C42.6,274.4 35.1,269.8 34.3,263.6C33.1,254.7 46.3,244.2 68.8,234.3L68.9,233.6C38,246.1 19.4,259.5 21.4,270C22.8,277.3 34,282.2 51.9,284.5C54.2,284.8 56.6,285 59.1,285.3C72.3,286.4 88.4,286.3 106.5,285C108.9,284.8 111.4,284.6 113.8,284.4C116.5,284.2 119.2,283.9 121.9,283.6C123.7,283.4 125.5,283.2 127.3,283L127.3,280.9" style="fill:rgb(238,49,36);fill-rule:nonzero;"/></g><g transform="matrix(1,0,0,1,-10,-211)"><path d="M180.8,249.5L180.8,307.9L173.7,307.9L173.7,299.1C170.5,302.6 162.7,309.3 150.2,309.3C135.5,309.3 127.5,300.6 127.5,284.9L127.5,249.5L134.6,249.5L134.6,283.7C134.6,296.2 140.5,302.6 152,302.6C160.6,302.6 169.8,296.2 173.7,290L173.7,249.5L180.8,249.5ZM206.4,231.2L199.2,231.2L199.2,249.5L184.7,249.5L184.7,256L199.2,256L199.2,292.1C199.2,303.2 204.7,309.3 214.8,309.3C219.2,309.3 224,308.1 226.3,306.6L226.6,306.4L226.6,299.4L225.7,299.9C222.7,301.6 219.6,302.5 216.4,302.5C209,302.5 206.4,299.4 206.4,290.6L206.4,256L227.4,256L227.4,249.5L206.4,249.5L206.4,231.2ZM259.2,248.1C276.9,248.1 290.3,261.3 290.3,278.8C290.3,296.2 276.9,309.3 259.2,309.3C241.5,309.3 228.2,296.2 228.2,278.8C228.2,261.3 241.5,248.1 259.2,248.1M259.2,302.7C272.6,302.7 283.1,292.2 283.1,278.8C283.1,265.1 272.8,254.7 259.2,254.7C245.7,254.7 235.4,265.1 235.4,278.8C235.4,292.2 245.9,302.7 259.2,302.7M366.5,248.1C354.4,248.1 347.3,254.8 343.9,259.5C341,252.1 334.5,248.1 325.2,248.1C315.4,248.1 308.2,252.7 304.3,257.6L304.3,249.6L297.2,249.6L297.2,308L304.3,308L304.3,267.3C308.4,260 316.4,255 323.6,255C333.7,255 338.7,261 338.7,272.9L338.7,308.1L345.8,308.1L345.8,273.8C345.8,272 345.7,270.7 345.6,269.2L345.5,267.9C348.7,261.5 356.3,255 364.9,255C371.9,255 380.2,258.1 380.2,273L380.2,308L387.3,308L387.3,271.8C387.5,256.7 379.8,248.1 366.5,248.1M450.9,302.1C452.1,302.1 453.1,301.9 454,301.5L454.9,301L454.9,307.1L454.6,307.3C453.1,308.2 451.2,308.4 449.5,308.4C445,308.4 440.1,306 439.1,299.4C432.7,306 424.7,309.4 415.2,309.4C404.3,309.4 392.6,303.3 392.6,290C392.6,278.7 402.6,270.7 416.9,270.7C424.7,270.7 431.8,272.5 438.4,276.3L438.4,270.1C438.4,257.4 427.8,254.7 418.9,254.7C409.3,254.7 402,259.3 400,260.7L399,261.4L399,254L399.3,253.8C402.6,251.7 409.6,248.1 420,248.1C436.2,248.1 445.5,256 445.5,269.6L445.5,294.7C445.4,299.3 447.5,302.1 450.9,302.1M438.3,283.2C435.8,281.5 428,277 418.4,277C407,277 399.9,281.9 399.9,289.8C399.9,299.3 408.7,302.7 416.8,302.7C426.4,302.7 434.2,297.2 438.3,292L438.3,283.2ZM474.8,231.2L467.6,231.2L467.6,249.5L453.1,249.5L453.1,256L467.6,256L467.6,292.1C467.6,303.2 473.1,309.3 483.2,309.3C487.6,309.3 492.4,308.1 494.7,306.6L495,306.4L495,299.4L494.1,299.9C491.1,301.6 488,302.5 484.8,302.5C477.4,302.5 474.8,299.4 474.8,290.6L474.8,256L495.8,256L495.8,249.5L474.8,249.5L474.8,231.2ZM527.2,248.1C548.6,248.1 554.2,267.5 554.2,277.8L554.2,280.3L505.2,280.3C506,293.7 516.1,302.7 530.7,302.7C537.5,302.7 543.8,300.9 548.8,297.4L549.8,296.7L549.8,303.8L549.6,304C545.3,307.2 537.8,309.3 530,309.3C511.6,309.3 498.2,296.5 498.2,278.8C498.1,261 510.3,248.1 527.2,248.1M547.1,274C546.8,266 541.4,254.7 527.1,254.7C514.1,254.7 506.3,264.5 505.4,274L547.1,274ZM610.9,223L618,223L618,307.9L610.9,307.9L610.9,299.2C605.4,305.8 597.4,309.4 588.1,309.4C571.2,309.4 558.4,296.3 558.4,278.9C558.4,261.4 571.2,248.2 588.1,248.2C597.4,248.2 605.4,251.8 610.9,258.5L610.9,223ZM610.9,268.3C606.9,260.1 598.2,254.7 589.3,254.7C575.8,254.7 565.7,265.1 565.7,278.8C565.7,292.4 575.9,302.7 589.3,302.7C598.4,302.7 607,297.3 610.9,289.2L610.9,268.3ZM86.3,222.9L86.1,222.5L79.8,222.5L55.1,277.5C57.3,278 59.6,278.5 62,278.9L83,232.4L105.2,281.8C107.7,281.8 110.2,281.7 112.7,281.6L86.3,222.9ZM59.2,285.2C56.7,285 54.3,284.7 52,284.4L41.4,307.9L49,307.9L59.2,285.2M113.9,284.3C111.4,284.5 109,284.7 106.6,284.9L116.9,307.9L124.5,307.9L113.9,284.3Z" style="fill-rule:nonzero;"/></g></svg>