<?xml version="1.0" encoding="utf-8"?>
<!-- Generator: Adobe Illustrator 19.2.1, SVG Export Plug-In . SVG Version: 6.00 Build 0)  -->
<svg version="1.1" id="layer" xmlns="http://www.w3.org/2000/svg" xmlns:xlink="http://www.w3.org/1999/xlink" x="0px" y="0px"
	 viewBox="0 0 652 652" style="enable-background:new 0 0 652 652;" xml:space="preserve">
<style type="text/css">
	.st0{fill:#EE3124;}
</style>
<path class="st0" d="M387,390.4h44.3v6.2h-50.9v-78.1h6.6V390.4z M460.3,341.6c16.2,0,28.5,12.2,28.5,28.3c0,16-12.2,28.1-28.5,28.1
	c-16.2,0-28.4-12.1-28.4-28.1C432,353.7,444.2,341.6,460.3,341.6 M460.3,391.8c12.3,0,21.9-9.6,21.9-22c0-12.7-9.4-22.2-21.9-22.2
	c-12.4,0-21.7,9.5-21.7,22.2C438.6,382.2,448.1,391.8,460.3,391.8 M540.6,342.9h6.5v50.7c0,15.7-10.9,25.4-28.4,25.4
	c-8.3,0-16.2-2.7-20.4-5l-0.3-0.2v-6.7l0.9,0.5c5.4,3.3,12.7,5.3,19.5,5.3c14.1,0,22.2-7,22.2-19.3v-5.4c-4.9,5.9-12.2,9.1-20.8,9.1
	c-15.5,0-27.3-12-27.3-28c0-15.9,11.7-27.8,27.3-27.8c8.5,0,15.8,3.3,20.8,9.2V342.9z M540.6,360c-3.5-7.5-11.2-12.3-19.7-12.3
	c-12.4,0-21.7,9.3-21.7,21.7c0,12.5,9.3,21.9,21.7,21.9c8.5,0,16.2-4.8,19.7-12.2V360z M563.3,320c-2.7,0-4.9,2.2-4.9,5
	c0,2.7,2.2,5,4.9,5c2.7,0,4.9-2.2,4.9-5C568.2,322.2,566,320,563.3,320 M560.1,396.6h6.5v-53.7h-6.5V396.6z M620.4,387
	c-4.6,3.3-9.7,4.8-15.8,4.8c-12.7,0-22.3-9.4-22.3-22c0-12.7,9.6-22.2,22.3-22.2c5,0,10,1.4,14.8,4.2l0.9,0.5v-6.5l-0.3-0.2
	c-4.6-2.8-10-4.2-16-4.2c-16.1,0-28.2,12.1-28.2,28.2c0,16.1,12.1,28.2,28.1,28.2c6.6,0,12.4-1.6,17.2-4.7l0.3-0.2v-6.7L620.4,387z
	 M170.6,276.5c-12.4,2.3-24.5,4.2-36.1,5.6v-1.7C146,279.6,158.1,278.3,170.6,276.5 M127.4,280.9c-1.8,0.1-3.6,0.2-5.4,0.3
	c-3.2,0.2-6.3,0.3-9.4,0.4c-2.5,0.1-5,0.1-7.5,0.2c-16.9,0.2-31.6-0.8-43.1-2.9c-2.4-0.4-4.8-0.9-6.9-1.4
	c-12.5-3.1-20-7.7-20.8-13.9c-1.2-8.9,12-19.4,34.5-29.3l0.1-0.7C38,246.1,19.4,259.5,21.4,270c1.4,7.3,12.6,12.2,30.5,14.5
	c2.3,0.3,4.7,0.5,7.2,0.8c13.2,1.1,29.3,1,47.4-0.3c2.4-0.2,4.9-0.4,7.3-0.6c2.7-0.2,5.4-0.5,8.1-0.8c1.8-0.2,3.6-0.4,5.4-0.6V280.9
	"/>
<path d="M180.8,249.5v58.4h-7.1v-8.8c-3.2,3.5-11,10.2-23.5,10.2c-14.7,0-22.7-8.7-22.7-24.4v-35.4h7.1v34.2
	c0,12.5,5.9,18.9,17.4,18.9c8.6,0,17.8-6.4,21.7-12.6v-40.5H180.8z M206.3,231.2h-7.1v18.3h-14.5v6.5h14.5v36.1
	c0,11.1,5.5,17.2,15.6,17.2c4.4,0,9.2-1.2,11.5-2.7l0.3-0.2v-7l-0.9,0.5c-3,1.7-6.1,2.6-9.3,2.6c-7.4,0-10-3.1-10-11.9V256h21v-6.5
	h-21V231.2z M259.2,248.1c17.7,0,31.1,13.2,31.1,30.7c0,17.4-13.4,30.5-31.1,30.5c-17.7,0-31-13.1-31-30.5
	C228.2,261.3,241.5,248.1,259.2,248.1 M259.2,302.7c13.4,0,23.9-10.5,23.9-23.9c0-13.7-10.3-24.1-23.9-24.1
	c-13.5,0-23.8,10.4-23.8,24.1C235.4,292.2,245.9,302.7,259.2,302.7 M366.5,248.1c-12.1,0-19.2,6.7-22.6,11.4
	c-2.9-7.4-9.4-11.4-18.7-11.4c-9.8,0-17,4.6-20.9,9.5v-8h-7.1v58.4h7.1v-40.7c4.1-7.3,12.1-12.3,19.3-12.3c10.1,0,15.1,6,15.1,17.9
	v35.2h7.1v-34.3c0-1.8-0.1-3.1-0.2-4.6l-0.1-1.3c3.2-6.4,10.8-12.9,19.4-12.9c7,0,15.3,3.1,15.3,18v35h7.1v-36.2
	C387.5,256.7,379.8,248.1,366.5,248.1 M450.9,302.1c1.2,0,2.2-0.2,3.1-0.6l0.9-0.5v6.1l-0.3,0.2c-1.5,0.9-3.4,1.1-5.1,1.1
	c-4.5,0-9.4-2.4-10.4-9c-6.4,6.6-14.4,10-23.9,10c-10.9,0-22.6-6.1-22.6-19.4c0-11.3,10-19.3,24.3-19.3c7.8,0,14.9,1.8,21.5,5.6
	v-6.2c0-12.7-10.6-15.4-19.5-15.4c-9.6,0-16.9,4.6-18.9,6l-1,0.7V254l0.3-0.2c3.3-2.1,10.3-5.7,20.7-5.7c16.2,0,25.5,7.9,25.5,21.5
	v25.1C445.4,299.3,447.5,302.1,450.9,302.1 M438.3,283.2c-2.5-1.7-10.3-6.2-19.9-6.2c-11.4,0-18.5,4.9-18.5,12.8
	c0,9.5,8.8,12.9,16.9,12.9c9.6,0,17.4-5.5,21.5-10.7V283.2z M474.7,231.2h-7.1v18.3h-14.5v6.5h14.5v36.1c0,11.1,5.5,17.2,15.6,17.2
	c4.4,0,9.2-1.2,11.5-2.7l0.3-0.2v-7l-0.9,0.5c-3,1.7-6.1,2.6-9.3,2.6c-7.4,0-10-3.1-10-11.9V256h21v-6.5h-21V231.2z M527.2,248.1
	c21.4,0,27,19.4,27,29.7v2.5h-49c0.8,13.4,10.9,22.4,25.5,22.4c6.8,0,13.1-1.8,18.1-5.3l1-0.7v7.1l-0.2,0.2
	c-4.3,3.2-11.8,5.3-19.6,5.3c-18.4,0-31.8-12.8-31.8-30.5C498.1,261,510.3,248.1,527.2,248.1 M547.1,274c-0.3-8-5.7-19.3-20-19.3
	c-13,0-20.8,9.8-21.7,19.3H547.1z M610.9,223h7.1v84.9h-7.1v-8.7c-5.5,6.6-13.5,10.2-22.8,10.2c-16.9,0-29.7-13.1-29.7-30.5
	c0-17.5,12.8-30.7,29.7-30.7c9.3,0,17.3,3.6,22.8,10.3V223z M610.9,268.3c-4-8.2-12.7-13.6-21.6-13.6c-13.5,0-23.6,10.4-23.6,24.1
	c0,13.6,10.2,23.9,23.6,23.9c9.1,0,17.7-5.4,21.6-13.5V268.3z M86.3,222.9l-0.2-0.4h-6.3l-24.7,55c2.2,0.5,4.5,1,6.9,1.4l21-46.5
	l22.2,49.4c2.5,0,5-0.1,7.5-0.2L86.3,222.9z M59.2,285.2c-2.5-0.2-4.9-0.5-7.2-0.8l-10.6,23.5H49L59.2,285.2 M113.9,284.3
	c-2.5,0.2-4.9,0.4-7.3,0.6l10.3,23h7.6L113.9,284.3z"/>
</svg>
